# xmcd CD database file
#
# Track frame offsets:
#	183
#	12348
#	22088
#	39558
#	60713
#	69330
#	82105
#	98235
#	115885
#	130250
#	141038
#	157493
#	171780
#	189400
#	203220
#	213585
#	224870
#	236533
#	251440
#
# Disc length: 3579 seconds
#
# Revision: 3
# Processed by: cddbd v1.5.2PL0 Copyright (c) Steve Scherf et al.
# Submitted via: CDex 1.70beta2
#
DISCID=220df913
DTITLE=Memphis Slim - Memphis Slim Live In Paris, 1963
DYEAR=1963
DGENRE=Blues
TTITLE0=Jamboree Boogie
TTITLE1=I'Lost Without You
TTITLE2=Nervous Man
TTITLE3=All Day Long
TTITLE4=Kansas City
TTITLE5=For My Baby
TTITLE6=Summertime
TTITLE7=Comin' Baby
TTITLE8=Every Day I Have The Blues
TTITLE9=Baby Please Come On
TTITLE10=TV Blues
TTITLE11=Baby Doll
TTITLE12=Careless Love
TTITLE13=Shake, Rattle And Roll
TTITLE14=Pigalle Love
TTITLE15=Kansas City
TTITLE16=Corine Corina
TTITLE17=I'm A Lonesome Traveller
TTITLE18=Et 1 Boogie
EXTD=YEAR: 1963
EXTT0=
EXTT1=
EXTT2=
EXTT3=
EXTT4=
EXTT5=
EXTT6=
EXTT7=
EXTT8=
EXTT9=
EXTT10=
EXTT11=
EXTT12=
EXTT13=
EXTT14=
EXTT15=
EXTT16=
EXTT17=
EXTT18=
PLAYORDER=
